<svg width="20" height="20" viewBox="0 0 20 20" fill="none" xmlns="http://www.w3.org/2000/svg">
<path d="M19.2857 5.71429H0.714286C0.524845 5.71429 0.343164 5.78954 0.209209 5.9235C0.0752549 6.05745 0 6.23913 0 6.42857L0 7.85714C0 8.04658 0.0752549 8.22826 0.209209 8.36222C0.343164 8.49617 0.524845 8.57143 0.714286 8.57143H19.2857C19.4752 8.57143 19.6568 8.49617 19.7908 8.36222C19.9247 8.22826 20 8.04658 20 7.85714V6.42857C20 6.23913 19.9247 6.05745 19.7908 5.9235C19.6568 5.78954 19.4752 5.71429 19.2857 5.71429ZM19.2857 17.1429H0.714286C0.524845 17.1429 0.343164 17.2181 0.209209 17.3521C0.0752549 17.486 0 17.6677 0 17.8571L0 19.2857C0 19.4752 0.0752549 19.6568 0.209209 19.7908C0.343164 19.9247 0.524845 20 0.714286 20H19.2857C19.4752 20 19.6568 19.9247 19.7908 19.7908C19.9247 19.6568 20 19.4752 20 19.2857V17.8571C20 17.6677 19.9247 17.486 19.7908 17.3521C19.6568 17.2181 19.4752 17.1429 19.2857 17.1429ZM4.82589 2.85714H15.1746C15.2455 2.85714 15.3157 2.84317 15.3812 2.81602C15.4467 2.78886 15.5062 2.74907 15.5564 2.6989C15.6065 2.64874 15.6462 2.58918 15.6733 2.52365C15.7004 2.45811 15.7143 2.38788 15.7143 2.31696V0.539732C15.7143 0.468854 15.7003 0.398669 15.6732 0.333186C15.6461 0.267702 15.6063 0.208203 15.5562 0.158084C15.5061 0.107965 15.4466 0.0682089 15.3811 0.0410848C15.3156 0.0139607 15.2454 1.84645e-07 15.1746 1.84645e-07H4.82589C4.75498 -5.84723e-05 4.68474 0.0138588 4.61921 0.0409566C4.55367 0.0680544 4.49412 0.107801 4.44396 0.157926C4.39379 0.208051 4.35399 0.26757 4.32684 0.333083C4.29969 0.398595 4.28571 0.468816 4.28571 0.539732V2.31696C4.28571 2.46023 4.34263 2.59763 4.44393 2.69893C4.54523 2.80023 4.68263 2.85714 4.82589 2.85714ZM15.1746 14.2857C15.2455 14.2857 15.3157 14.2717 15.3812 14.2446C15.4467 14.2174 15.5062 14.1776 15.5564 14.1275C15.6065 14.0773 15.6462 14.0178 15.6733 13.9522C15.7004 13.8867 15.7143 13.8165 15.7143 13.7455V11.9683C15.7143 11.8252 15.6574 11.6879 15.5562 11.5867C15.455 11.4854 15.3177 11.4286 15.1746 11.4286H4.82589C4.75498 11.4285 4.68474 11.4424 4.61921 11.4695C4.55367 11.4966 4.49412 11.5364 4.44396 11.5865C4.39379 11.6366 4.35399 11.6961 4.32684 11.7617C4.29969 11.8272 4.28571 11.8974 4.28571 11.9683V13.7455C4.28571 13.8165 4.29969 13.8867 4.32683 13.9523C4.35398 14.0178 4.39377 14.0773 4.44393 14.1275C4.49409 14.1777 4.55364 14.2175 4.61918 14.2446C4.68471 14.2717 4.75496 14.2857 4.82589 14.2857H15.1746Z" fill="white"/>
</svg>
