<svg width="80" height="50" viewBox="0 0 80 50" fill="none" xmlns="http://www.w3.org/2000/svg">
<path d="M13.9272 25.045L14.6523 36.7398L13.9272 49.0284C13.8897 49.4782 13.6521 49.8201 13.3771 49.8201C13.102 49.8201 12.852 49.4782 12.852 49.0284L12.1519 36.7398L12.852 25.045C12.852 24.6492 13.0895 24.2893 13.3771 24.2893C13.6521 24.2893 13.8897 24.6492 13.9272 25.045ZM16.6026 16.8406C16.2525 16.8406 16.015 17.2364 15.9775 17.7402L15.3524 36.7398L15.9775 49.0284C16.015 49.5322 16.2525 49.928 16.6026 49.928C16.9151 49.928 17.1902 49.5322 17.1902 49.0284L17.9153 36.7398L17.1902 17.7402C17.1902 17.2364 16.9151 16.8406 16.6026 16.8406ZM19.7906 12.5045C19.403 12.5045 19.128 12.9003 19.0905 13.4581L18.5404 36.8478L19.0905 49.0464C19.128 49.6042 19.403 50 19.7906 50C20.1406 50 20.4532 49.6042 20.4532 49.0464L21.1158 36.8478L20.4532 13.4581C20.4532 12.9003 20.1406 12.5045 19.7906 12.5045ZM0.90014 29.8849C0.725113 29.8849 0.625097 30.0828 0.587592 30.3347L0 36.7398L0.587592 43.0371C0.625097 43.289 0.725113 43.4869 0.90014 43.4869C1.07517 43.4869 1.17518 43.289 1.21269 43.0371L1.9128 36.7398L1.21269 30.3347C1.17518 30.0828 1.07517 29.8849 0.90014 29.8849ZM3.8506 25.9446C3.67557 25.9446 3.53805 26.1425 3.53805 26.3944L2.73793 36.7398L3.53805 46.8334C3.53805 47.1393 3.67557 47.3372 3.8506 47.3372C4.02563 47.3372 4.16315 47.1393 4.20065 46.8874L5.1008 36.7398L4.20065 26.3944C4.16315 26.1425 4.02563 25.9446 3.8506 25.9446ZM7.01359 23.8935C6.80106 23.8935 6.62603 24.1454 6.60103 24.4872L5.87592 36.7398L6.60103 48.5786C6.63854 48.8845 6.81356 49.1364 7.01359 49.1364C7.22613 49.1364 7.40115 48.8845 7.40115 48.5786L8.26379 36.7398L7.40115 24.4872C7.40115 24.1454 7.22613 23.8935 7.01359 23.8935ZM10.1766 23.4977C9.93905 23.4977 9.72652 23.7496 9.72652 24.1454L9.0014 36.7398L9.72652 48.9385C9.72652 49.3343 9.93905 49.5862 10.1766 49.5862C10.4141 49.5862 10.6267 49.3343 10.6642 48.9385L11.4643 36.7398L10.6642 24.1454C10.6267 23.7496 10.4141 23.4977 10.1766 23.4977ZM40.3563 3.54444C40.2188 3.4005 40.0062 3.29255 39.8312 3.29255C39.5562 3.29255 39.3061 3.43649 39.1311 3.6344C38.8936 3.94027 38.7435 4.39007 38.7185 4.83987V4.98381L38.306 36.7758L38.5185 42.6232L38.731 48.3267C38.7685 49.1724 39.2561 49.8741 39.8437 49.8741C40.4313 49.8741 40.9189 49.1724 40.9189 48.3267L41.4065 36.7758L40.9189 4.83987C40.8689 4.30011 40.6688 3.79633 40.3563 3.54444ZM37.0183 6.29723C36.8432 6.15329 36.6682 6.04534 36.4682 6.04534C36.2682 6.04534 36.0806 6.15329 35.9181 6.29723C35.6431 6.54912 35.468 6.99892 35.468 7.5027L35.4305 7.80856L35.0805 36.7398C35.0805 36.7398 35.0805 36.7938 35.468 48.5426V48.5966C35.468 48.9025 35.543 49.1904 35.6806 49.4422C35.8931 49.7841 36.1681 50 36.4807 50C36.7557 50 37.0058 49.8021 37.1808 49.5502C37.3933 49.2983 37.4933 48.9565 37.4933 48.5426L37.5309 47.3372L37.9184 36.7938L37.5058 7.5027C37.4683 6.99892 37.2933 6.54912 37.0183 6.29723ZM23.0911 10.3454C22.7035 10.3454 22.366 10.8492 22.366 11.443L21.8159 36.7398L22.366 48.8305C22.4035 49.4243 22.716 49.8741 23.0911 49.8741C23.5037 49.8741 23.8162 49.4243 23.8537 48.8305L24.4788 36.7398L23.8537 11.443C23.8287 10.8492 23.5162 10.3454 23.0911 10.3454ZM70.1859 21.6445C68.8357 21.6445 67.548 22.0403 66.3603 22.742C65.5602 10.0036 58.1341 0 49.0701 0C46.8448 0 44.6945 0.593739 42.7817 1.69126C42.0191 2.08708 41.8065 2.48291 41.8065 3.34653V48.2728C41.8065 49.1724 42.2941 49.8201 42.8817 49.928H70.1734C75.5868 49.928 80 43.6308 80 35.8402C80.0125 27.9957 75.5993 21.6445 70.1859 21.6445ZM33.0927 10.7953C32.5676 10.7953 32.155 11.389 32.1175 12.1986L31.7049 36.7938L32.1175 48.5966C32.155 49.3523 32.5676 49.946 33.0927 49.946C33.6177 49.946 34.0303 49.3523 34.0303 48.5966L34.5179 36.7938L34.0303 12.1986C33.9928 11.389 33.6177 10.7953 33.0927 10.7953ZM26.3916 9.39187C25.9791 9.39187 25.5915 9.94962 25.5915 10.5973L25.1039 36.7398L25.5915 48.7765C25.629 49.4243 25.9791 49.928 26.3916 49.928C26.8417 49.928 27.1917 49.4243 27.2292 48.7765L27.7793 36.7398L27.2292 10.5973C27.1917 9.94962 26.8417 9.39187 26.3916 9.39187ZM29.7296 10.0036C29.2421 10.0036 28.867 10.5614 28.867 11.2451L28.3794 36.7398L28.867 48.6866C28.9045 49.3883 29.2546 49.928 29.7296 49.928C30.2047 49.928 30.5923 49.3703 30.5923 48.6866L31.1173 36.7398L30.5923 11.2451C30.5923 10.5434 30.2172 10.0036 29.7296 10.0036Z" fill="white"/>
</svg>
